<svg id="Layer_1" data-name="Layer 1" xmlns="http://www.w3.org/2000/svg" xmlns:xlink="http://www.w3.org/1999/xlink" viewBox="0 0 265 55.67"><defs><style>.cls-1,.cls-10,.cls-12,.cls-8{fill:none;}.cls-2{fill:#fff;}.cls-3{fill:#3c98d3;}.cls-4,.cls-5{fill:#4d9e56;}.cls-4{stroke:#4d9e56;}.cls-10,.cls-12,.cls-13,.cls-4,.cls-7,.cls-8,.cls-9{stroke-miterlimit:10;}.cls-13,.cls-4{stroke-width:0.79px;}.cls-6{clip-path:url(#clip-path);}.cls-11,.cls-13,.cls-14,.cls-7,.cls-9{fill:#3c98d4;}.cls-12,.cls-13,.cls-7,.cls-8,.cls-9{stroke:#3c98d4;}.cls-10,.cls-8,.cls-9{stroke-width:0.4px;}.cls-10{stroke:#fff;}.cls-12{stroke-width:2px;}.cls-14{font-size:51px;font-family:Asgalt-Regular, Asgalt;}</style><clipPath id="clip-path"><rect class="cls-1" x="49.16" y="16.54" width="6.3" height="12.1"/></clipPath></defs><title>full_logo_whiteBG_blueText</title><rect class="cls-2" width="265" height="55.67"/><path class="cls-3" d="M59.74,45.43,56.9,39.51l1.19-2.26,1.66,8.19"/><path class="cls-3" d="M41.81,44.39l2.72-5.46L47.67,38l-5.86,6.35"/><circle class="cls-4" cx="52.61" cy="11.54" r="2.86"/><path class="cls-3" d="M55.57,16.64c.22.1.44.21.67.35a8.65,8.65,0,0,1,1.62,1.21l1.56,2.48a21,21,0,0,1,.19,5.18q-1.31-2.45-2.62-5-1.09-2.12-2.12-4.2l.69,0"/><path class="cls-5" d="M60,26.46q0-.76,0-1.51l6.3,7.63L60,26.46"/><g class="cls-6"><g class="cls-6"><path class="cls-7" d="M55.46,16.63l-2.27,12H52l-.07,0-2.77-12.1,1.68,0,1.69.29,1.36-.24Z"/></g></g><path class="cls-8" d="M49,16.53h.17l1.68,0,1.69.29,1.36-.24,1.58,0"/><path class="cls-9" d="M49.16,16.52v0l2.77,12.1h0"/><line class="cls-10" x1="52" y1="28.62" x2="53.19" y2="28.62"/><path class="cls-11" d="M53.52,27.2,58,36.11l-3.68-.75-3-6.17,2.16-2"/><path class="cls-11" d="M52.93,28.75,48.79,37l-1.58-3.11q.47-.9,1-1.85c.24-.4.45-.74.68-1.12.88-1.41,1.89-2.91,2.42-3.68l1.59,1.45"/><path class="cls-5" d="M49.53,17.23l-.21.5L48.7,19.6l-2,2.15a39.33,39.33,0,0,1-5,1.69l4.18-4L49,16.62l.57.62"/><path class="cls-3" d="M41.2,24l1.62-.7-3.24,9.41L41.2,24"/><path class="cls-12" d="M43.74,6.55A22.63,22.63,0,1,1,34.3,42.63"/><path class="cls-12" d="M34.3,42.63A22.63,22.63,0,0,1,43.74,6.55"/><path class="cls-13" d="M59.74,45.43,56.9,39.51l1.19-2.26Z"/><path class="cls-13" d="M41.81,44.39l2.72-5.46L47.67,38Z"/><path class="cls-7" d="M55.46,11.54a2.86,2.86,0,1,1-2.86-2.86,2.86,2.86,0,0,1,2.86,2.86"/><path class="cls-9" d="M55.57,16.64c.22.1.44.21.67.35a8.65,8.65,0,0,1,1.62,1.21l1.56,2.48a21,21,0,0,1,.19,5.18q-1.31-2.45-2.62-5-1.09-2.12-2.12-4.2Z"/><path class="cls-9" d="M60,26.46q0-.76,0-1.51l6.3,7.63Z"/><line class="cls-8" x1="53.19" y1="28.62" x2="55.46" y2="16.63"/><path class="cls-8" d="M53.52,27.2,58,36.11l-3.68-.75-3-6.17Z"/><path class="cls-8" d="M52.93,28.75,48.79,37l-1.58-3.11q.47-.9,1-1.85c.24-.4.45-.74.68-1.12.88-1.41,1.89-2.91,2.42-3.68Z"/><path class="cls-9" d="M49.53,17.23l-.21.5L48.7,19.6l-2,2.15a39.33,39.33,0,0,1-5,1.69l4.18-4L49,16.62Z"/><path class="cls-9" d="M41.2,24l1.62-.7-3.24,9.41Z"/><path class="cls-12" d="M38,39.17a17.45,17.45,0,0,1-4.43-11.62,17.8,17.8,0,0,1,12-16.72"/><text class="cls-14" transform="translate(86.67 40.95)">NEUROGATE</text></svg>