<svg xmlns="http://www.w3.org/2000/svg" xmlns:xlink="http://www.w3.org/1999/xlink" viewBox="0 0 48.25 48.25"><defs><style>.cls-1,.cls-10,.cls-11,.cls-13,.cls-7,.cls-9{fill:none;}.cls-12,.cls-2,.cls-6{fill:#3c98d3;}.cls-3,.cls-4{fill:#4d9e56;}.cls-3{stroke:#4d9e56;}.cls-10,.cls-11,.cls-12,.cls-13,.cls-3,.cls-6,.cls-7,.cls-8,.cls-9{stroke-miterlimit:10;}.cls-11,.cls-3{stroke-width:0.79px;}.cls-5{clip-path:url(#clip-path);}.cls-10,.cls-11,.cls-12,.cls-13,.cls-6,.cls-7,.cls-8{stroke:#3c98d3;}.cls-12,.cls-7,.cls-8,.cls-9{stroke-width:0.4px;}.cls-8{fill:#fff;}.cls-9{stroke:#fff;}.cls-10{stroke-width:3px;}.cls-13{stroke-width:1.5px;}</style><clipPath id="clip-path"><rect class="cls-1" x="21.87" y="12.82" width="6.3" height="12.1"/></clipPath></defs><title>Asset 1</title><g id="Layer_2" data-name="Layer 2"><g id="Layer_1-2" data-name="Layer 1"><path class="cls-2" d="M32.45,41.72l-2.84-5.92,1.18-2.26,1.66,8.19"/><path class="cls-2" d="M14.52,40.68l2.72-5.46,3.14-.89-5.86,6.35"/><circle class="cls-3" cx="25.32" cy="7.83" r="2.86"/><path class="cls-2" d="M28.28,12.93c.22.1.44.21.67.35a8.65,8.65,0,0,1,1.62,1.21L32.13,17a20.8,20.8,0,0,1,.27,3,21,21,0,0,1-.08,2.17q-1.31-2.45-2.62-5Q28.62,15,27.59,13l.69,0"/><path class="cls-4" d="M32.67,22.75q0-.76,0-1.51L39,28.86l-6.33-6.11"/><g class="cls-5"><g class="cls-5"><path class="cls-6" d="M28.17,12.92l-2.27,12H24.71l-.07,0-2.77-12.1,1.68,0,1.69.29,1.36-.24Z"/></g></g><path class="cls-7" d="M21.7,12.82h.17l1.68,0,1.69.29,1.36-.24,1.58,0"/><path class="cls-8" d="M21.87,12.8v0l2.77,12.1h0"/><line class="cls-9" x1="24.71" y1="24.9" x2="25.9" y2="24.9"/><path class="cls-2" d="M26.23,23.48l4.48,8.91L27,31.64l-3-6.17,2.16-2"/><path class="cls-2" d="M25.64,25l-4.13,8.3-1.58-3.11q.47-.9,1-1.85c.24-.4.45-.74.68-1.12.88-1.41,1.89-2.91,2.42-3.68L25.64,25"/><path class="cls-4" d="M22.24,13.52,22,14l-.61,1.87-2,2.15a39.33,39.33,0,0,1-5,1.69l4.18-4,3.06-2.84.57.62"/><path class="cls-2" d="M13.91,20.29l1.62-.7L12.29,29l1.62-8.71"/><path class="cls-10" d="M16.45,2.83A22.63,22.63,0,1,1,7,38.92"/><path class="cls-10" d="M7,38.92A22.63,22.63,0,0,1,16.45,2.83"/><path class="cls-11" d="M32.45,41.72l-2.84-5.92,1.18-2.26Z"/><path class="cls-11" d="M14.52,40.68l2.72-5.46,3.14-.89Z"/><path class="cls-6" d="M28.18,7.83A2.86,2.86,0,1,1,25.32,5a2.86,2.86,0,0,1,2.86,2.86"/><path class="cls-7" d="M28.28,12.93c.22.1.44.21.67.35a8.65,8.65,0,0,1,1.62,1.21L32.13,17a20.8,20.8,0,0,1,.27,3,21,21,0,0,1-.08,2.17q-1.31-2.45-2.62-5Q28.62,15,27.59,13Z"/><path class="cls-12" d="M32.67,22.75q0-.76,0-1.51L39,28.86Z"/><line class="cls-7" x1="25.9" y1="24.9" x2="28.17" y2="12.92"/><path class="cls-7" d="M26.23,23.48l4.48,8.91L27,31.64l-3-6.17Z"/><path class="cls-7" d="M25.64,25l-4.13,8.3-1.58-3.11q.47-.9,1-1.85c.24-.4.45-.74.68-1.12.88-1.41,1.89-2.91,2.42-3.68Z"/><path class="cls-12" d="M22.24,13.52,22,14l-.61,1.87-2,2.15a39.33,39.33,0,0,1-5,1.69l4.18-4,3.06-2.84Z"/><path class="cls-7" d="M13.91,20.29l1.62-.7L12.29,29Z"/><path class="cls-13" d="M10.74,35.46A17.45,17.45,0,0,1,6.3,23.84a17.8,17.8,0,0,1,12-16.72"/></g></g></svg>